<svg width="771" height="210" viewBox="0 0 771 210" fill="none" xmlns="http://www.w3.org/2000/svg">
<path d="M370.4 12.9334L370 26L363.6 26.4C357.467 26.8 357.2 26.9334 357.6 30.4C358 33.7334 358.534 34 364.534 34.4L371.067 34.8L370.267 52.8L369.6 70.6667L374.267 77.7334C383.2 90.9334 382.667 93.2 382.667 44.2667V4.02812e-05H376.667H370.8L370.4 12.9334Z" fill="black"/>
<path d="M434.667 45.6V91.3333L441.334 81.3333L448 71.3333V35.6V-2.51085e-05H441.334H434.667V45.6Z" fill="black"/>
<path d="M390.266 48.7999C389.733 49.3333 389.333 57.4666 389.333 66.9333V83.9999H408.666H428.133L427.733 66.2666L427.333 48.6666L409.2 48.2666C399.333 48.1333 390.8 48.3999 390.266 48.7999ZM422.666 57.3333C422.666 61.0666 422.4 61.3333 417.333 61.3333C412.266 61.3333 412 61.0666 412 57.3333C412 53.5999 412.266 53.3333 417.333 53.3333C422.4 53.3333 422.666 53.5999 422.666 57.3333Z" fill="black"/>
<path d="M0 137.333V206.667H8H16V182V157.333H36.4H56.8L73.4667 181.6L90.1333 206L99.7333 206.4C105.067 206.667 109.333 206.4 109.333 206C109.333 205.6 101.6 194.133 92 180.667C82.5333 167.2 74.6667 155.867 74.6667 155.6C74.6667 155.333 76.9333 154.4 79.7333 153.6C87.4667 151.2 97.2 142.8 101.867 134.8C105.2 128.533 106 125.733 106.4 115.867C107.333 96.1333 100.667 82.9333 85.8667 75.0666C74.6667 69.0666 66 68 31.0667 68H0V137.333ZM72.1333 86C83.6 90.1333 90.6667 100.4 90.6667 113.333C90.6667 125.733 84.9333 134.667 74 139.6C69.6 141.467 63.8667 142 42.4 142.4L16 142.933V113.467V84H41.2C60.4 84 67.7333 84.5333 72.1333 86Z" fill="black"/>
<path d="M338.667 129.733C338.667 182.4 338.4 191.867 336.667 193.333C333.867 195.6 324.8 196.533 321.467 194.8C318.8 193.333 318.667 192.533 318.667 165.733C318.667 131.2 317.334 125.333 307.467 115.2C299.467 106.933 293.2 104.8 279.2 104.933C267.467 105.067 258.934 108.533 251.067 116.4L245.334 121.867V114.267V106.667H238H230.667V156.667V206.8L238.4 206.4L246 206L246.667 172C247.2 141.333 247.6 137.467 249.867 134C261.734 116 288.667 113.867 298.8 130.267C301.867 135.067 302 136.667 302.667 166C303.467 200.267 303.734 201.733 312.934 206C319.2 208.933 338.534 208.267 344.934 204.933C354.134 200.133 353.867 201.067 354.667 143.333L355.334 91.3333L380 127.6C403.734 162.533 404.8 164 408.934 164C413.867 164 413.334 164.667 444 118.8L462 91.8666L462.4 149.333L462.667 206.667H470.667H478.667V137.333V67.9999H468.8H459.067L434 105.6C412.4 137.867 408.667 142.933 407.467 140.8C406.667 139.467 395.467 122.667 382.667 103.467L359.2 68.6666L348.934 68.2666L338.667 67.8666V129.733Z" fill="black"/>
<path d="M729.333 92.6666V106.533L721.733 106.933L714 107.333V114V120.667H721.333H728.667L729.333 156C730 190.667 730 191.467 733.333 197.2C736.667 203.067 742.4 206.933 750.267 208.667C754.933 209.6 768.8 207.2 770 205.2C770.533 204.533 770.4 201.467 770 198.267L769.067 192.533L762.667 193.867C757.333 194.933 755.733 194.8 751.867 192.533C744.667 188.267 743.867 183.867 744.267 150.133L744.667 120.667L749.333 120.533C751.867 120.4 757.467 120.267 761.733 120.133L769.333 120V113.333V106.667H756.667H744V92.6666V78.6666H736.667H729.333V92.6666Z" fill="black"/>
<path d="M384 91.6C384 92.2667 384.933 93.7333 385.867 94.9333C387.2 96.8 390 97.3333 401.6 97.4667C414.133 97.6 416.533 97.2 422.933 94.2667L430 90.9333L407.067 90.8C394.4 90.6667 384 91.0667 384 91.6Z" fill="black"/>
<path d="M155.733 105.333C140.133 108 126.266 118.4 119.066 133.067C115.6 140.133 115.333 141.867 115.333 156.667C115.333 171.2 115.6 173.333 118.8 180.133C125.733 194.933 138.666 204.8 155.6 208C170.533 210.933 189.6 206.533 199.333 197.733C203.066 194.4 209.333 186 209.333 184.267C209.333 183.6 206.666 182 203.466 180.933L197.466 178.933L194.133 183.333C192.266 185.733 187.2 189.467 183.066 191.6C176.666 194.667 173.6 195.333 166 195.2C147.866 195.067 134.666 184.933 130.8 168.133L129.6 162.667H172C198.666 162.667 214.8 162.133 215.333 161.333C215.733 160.667 215.466 155.333 214.666 149.733C211.333 125.067 196.666 108.933 174.533 105.333C165.066 103.867 164.666 103.867 155.733 105.333ZM177.733 120.267C187.733 123.2 197.2 134.267 199.333 145.733L200.266 150.667H165.466H130.666V147.333C130.666 139.067 139.866 126.267 148.666 122C158.4 117.467 166.133 117.067 177.733 120.267Z" fill="black"/>
<path d="M539.2 105.333C522.933 107.733 508.266 118.267 501.066 133.067C497.333 140.667 496.666 143.467 496.266 154.533C495.733 169.6 498.266 178.933 506 189.333C515.733 202.533 533.6 210.267 551.866 208.933C572.266 207.6 586.666 198.4 594.933 181.6C599.2 173.067 599.333 172 599.333 157.333C599.333 143.6 598.933 141.2 595.866 134.533C585.866 113.2 563.733 101.867 539.2 105.333ZM563.6 122.4C572.133 126.8 576.933 131.6 580.933 139.733C584 146 584.666 149.067 584.533 157.333C584.533 180 570.4 194.667 548.8 194.667C526.533 194.667 511.6 179.2 511.6 156.4C511.6 139.467 520.533 126.8 536.266 121.067C544.933 118 555.866 118.533 563.6 122.4Z" fill="black"/>
<path d="M657.467 105.467C649.067 107.067 640.667 111.467 636.133 116.667L632.133 121.2L631.333 114L630.4 106.667H623.2H616V156.667V206.667H624H632V174.667C632 139.733 632.533 136.4 639.733 128.933C645.6 122.667 652.933 119.733 662 119.6C672.8 119.467 680.667 123.733 685.333 132C688.667 137.867 688.667 138.533 689.067 172.267L689.467 206.667H696.533H703.6L704.4 196.267C704.933 190.667 704.8 173.333 704.267 158C703.2 131.2 703.067 129.733 699.6 123.067C694 112.133 684.533 106.267 670.667 104.933C666.667 104.533 660.667 104.8 657.467 105.467Z" fill="black"/>
<path d="M370.667 166C370.667 186.933 370.667 204.4 370.667 204.933C370.534 206.8 381.734 206.933 382.801 205.067C383.467 204.133 384.001 190.267 384.001 174.133V145.067L377.734 136.533C374.267 131.867 371.334 128 371.067 128C370.801 128 370.667 145.067 370.667 166Z" fill="black"/>
<path d="M440.8 136.533L434.667 145.2V175.867V206.667H441.334H448V167.333C448 145.733 447.734 128 447.467 128C447.2 128 444.134 131.867 440.8 136.533Z" fill="black"/>
</svg>
